<?xml version="1.0" encoding="UTF-8" standalone="no"?>
<svg
   xmlns:dc="http://purl.org/dc/elements/1.1/"
   xmlns:cc="http://creativecommons.org/ns#"
   xmlns:rdf="http://www.w3.org/1999/02/22-rdf-syntax-ns#"
   xmlns:svg="http://www.w3.org/2000/svg"
   xmlns="http://www.w3.org/2000/svg"
   viewBox="0 0 1122.52 793.70667"
   height="793.70667"
   width="1122.52"
   xml:space="preserve"
   id="svg1217"
   version="1.1"><metadata
     id="metadata1223"><rdf:RDF><cc:Work
         rdf:about=""><dc:format>image/svg+xml</dc:format><dc:type
           rdf:resource="http://purl.org/dc/dcmitype/StillImage" /><dc:title></dc:title></cc:Work></rdf:RDF></metadata><defs
     id="defs1221"><clipPath
       id="clipPath1233"
       clipPathUnits="userSpaceOnUse"><path
         id="path1231"
         d="M 4.329,0 H 841.89 V 594.68 H 4.329 Z" /></clipPath><clipPath
       id="clipPath1473"
       clipPathUnits="userSpaceOnUse"><path
         id="path1471"
         d="M 126.949,325.943 H 329.642 V 8.89941 H 126.949 Z" /></clipPath></defs><g
     transform="matrix(1.3333333,0,0,-1.3333333,0,793.70667)"
     id="g1225"><g
       id="g1227"><g
         transform="matrix(1.0044147,0,0,1,-3.379404,1.2611865)"
         clip-path="url(#clipPath1233)"
         id="g1229"><g
           transform="translate(-11.548501,-5.2611313)"
           id="g2245"><g
             id="g1263"
             transform="translate(674.0312,593.9438)"
             style="fill:#da46e0;fill-opacity:1"><path
               d="M 0,0 C 0,0 25.561,50.232 52.708,25.07 73.036,6.23 44.837,-13.665 26.049,-1.832 10.162,8.177 0,0 0,0"
               style="fill:#da46e0;fill-opacity:1;fill-rule:nonzero;stroke:none"
               id="path1265" /></g><g
             id="g1271"
             transform="translate(54.8911,544.0044)"
             style="fill:#da46e0;fill-opacity:1"><path
               d="M 0,0 C 0,0 -36.113,92.335 28.7,98.582 77.23,103.261 70.395,42.935 32.871,32.087 1.141,22.916 0,0 0,0"
               style="fill:#da46e0;fill-opacity:1;fill-rule:nonzero;stroke:none"
               id="path1273" /></g><g
             id="g1279"
             transform="translate(525.4629,501.6562)"
             style="fill:#a048c9;fill-opacity:1"><path
               d="M 0,0 C 0,0 -14.505,135.426 73.652,120.29 139.663,108.957 108.809,31.471 55.158,30.651 9.79,29.958 0,0 0,0"
               style="fill:#a048c9;fill-opacity:1;fill-rule:nonzero;stroke:none"
               id="path1281" /></g><g
             id="g1283"
             transform="translate(150.9619,527.9038)"
             style="fill:#a048c9;fill-opacity:1"><path
               d="M 0,0 C 0,0 -39.018,91.146 25.563,99.441 73.921,105.652 68.999,45.14 31.838,33.111 0.415,22.939 0,0 0,0"
               style="fill:#a048c9;fill-opacity:1;fill-rule:nonzero;stroke:none"
               id="path1285" /></g><g
             id="g1287"
             transform="translate(397.9492,573.4019)"
             style="fill:#da46e0;fill-opacity:1"><path
               d="M 0,0 C 0,0 -39.018,91.146 25.564,99.441 73.922,105.652 68.999,45.14 31.838,33.111 0.415,22.939 0,0 0,0"
               style="fill:#da46e0;fill-opacity:1;fill-rule:nonzero;stroke:none"
               id="path1289" /></g><g
             id="g1311"
             transform="translate(436.7891,597.4536)"
             style="fill:#da46e0;fill-opacity:1"><path
               d="M 0,0 C 0,0 51.096,70.207 86.281,25.331 112.628,-8.272 64.889,-31.688 39.184,-9.117 17.446,9.968 0,0 0,0"
               style="fill:#da46e0;fill-opacity:1;fill-rule:nonzero;stroke:none"
               id="path1313" /></g><g
             id="g1355"
             transform="translate(325.2715,545.8301)"
             style="fill:#da46e0;fill-opacity:1"><path
               d="M 0,0 C 0,0 73.907,25.798 50.546,60.722 33.054,86.872 -6.086,64.792 7.14,35.571 14.12,20.146 0,0 0,0"
               style="fill:#da46e0;fill-opacity:1;fill-rule:nonzero;stroke:none"
               id="path1357" /></g><g
             id="g1363"
             transform="translate(720.8623,549.8857)"
             style="fill:#da46e0;fill-opacity:1"><path
               d="M 0,0 C 0,0 102.619,18.3 79.287,69.152 61.815,107.228 5.691,86.472 16.904,45.258 22.822,23.504 0,0 0,0"
               style="fill:#da46e0;fill-opacity:1;fill-rule:nonzero;stroke:none"
               id="path1365" /></g><g
             id="g1367"
             transform="translate(643.1006,577.5029)"
             style="fill:#da46e0;fill-opacity:1"><path
               d="M 0,0 C 0,0 61.173,48.843 27.555,74.046 2.381,92.917 -27.224,59.11 -5.058,35.926 6.642,23.688 0,0 0,0"
               style="fill:#da46e0;fill-opacity:1;fill-rule:nonzero;stroke:none"
               id="path1369" /></g><g
             id="g1371"
             transform="translate(58.7974,323.9785)"
             style="fill:#da46e0;fill-opacity:1"><path
               d="m 0,0 c 0,0 -116.243,-4.21 -101.197,-75.376 11.266,-53.287 73.271,-25.801 72.265,17.822 C -29.782,-20.665 0,0 0,0"
               style="fill:#da46e0;fill-opacity:1;fill-rule:nonzero;stroke:none"
               id="path1373" /></g><g
             id="g1387"
             transform="translate(43.0405,459.2344)"
             style="fill:#d64398;fill-opacity:0.90196066"><path
               d="M 0,0 C 0,0 25.8,126.62 -38.712,135.446 -111.733,145.437 -102.688,54.2 -63.68,56.211 -25.55,58.177 0,0 0,0"
               style="fill:#d64398;fill-opacity:0.90196066;fill-rule:nonzero;stroke:none"
               id="path1389" /></g><g
             id="g1403"
             transform="translate(39.6626,333.4121)"
             style="fill:#da46e0;fill-opacity:1"><path
               d="m 0,0 c 0,0 -49.975,85.256 -99.715,33.063 -37.243,-39.08 19.982,-74.357 55.079,-49.082 C -14.958,5.355 0,0 0,0"
               style="fill:#da46e0;fill-opacity:1;fill-rule:nonzero;stroke:none"
               id="path1405" /></g><g
             id="g1411"
             transform="translate(9.1255,377.9365)"
             style="fill:#da46e0;fill-opacity:1"><path
               d="M 0,0 C 0,0 -3.796,99.074 -65.705,78.898 -112.059,63.793 -81.686,11.225 -42.953,16.277 -10.203,20.55 0,0 0,0"
               style="fill:#da46e0;fill-opacity:1;fill-rule:nonzero;stroke:none"
               id="path1413" /></g><g
             id="g1431"
             transform="translate(261.4473,586.1841)"
             style="fill:#da46e0;fill-opacity:1"><path
               d="M 0,0 C 0,0 99.534,48.104 51.284,102.354 15.158,142.972 -24.994,88.473 -2.543,51.153 16.441,19.598 0,0 0,0"
               style="fill:#da46e0;fill-opacity:1;fill-rule:nonzero;stroke:none"
               id="path1433" /></g><g
             id="g2120"><g
               style="fill:#da46e0;fill-opacity:1"
               transform="translate(340.1611,483.7402)"
               id="g1235"><path
                 id="path1237"
                 style="fill:#da46e0;fill-opacity:1;fill-rule:nonzero;stroke:none"
                 d="M 0,0 C 0,0 59.078,79.623 98.779,28.013 128.508,-10.629 73.756,-36.863 44.643,-10.822 20.025,11.199 0,0 0,0" /></g><g
               style="fill:#a048c9;fill-opacity:1"
               transform="translate(716.3779,463.5347)"
               id="g1239"><path
                 id="path1241"
                 style="fill:#a048c9;fill-opacity:1;fill-rule:nonzero;stroke:none"
                 d="M 0,0 C 0,0 88.847,44.004 100.704,-20.021 109.585,-67.96 48.893,-66.396 34.824,-29.957 22.929,0.856 0,0 0,0" /></g><g
               style="fill:#da46e0;fill-opacity:1"
               transform="translate(493.4717,571.0806)"
               id="g1243"><path
                 id="path1245"
                 style="fill:#da46e0;fill-opacity:1;fill-rule:nonzero;stroke:none"
                 d="M 0,0 C 0,0 46.398,-31.997 17.858,-55.567 -3.511,-73.217 -19.49,-42.628 -5.271,-25.575 6.757,-11.157 0,0 0,0" /></g><g
               style="fill:#a048c9;fill-opacity:1"
               transform="translate(810.5742,472.2446)"
               id="g1247"><path
                 id="path1249"
                 style="fill:#a048c9;fill-opacity:1;fill-rule:nonzero;stroke:none"
                 d="M 0,0 C 0,0 74.961,-2.881 59.688,-49.721 48.255,-84.792 8.485,-61.807 12.31,-32.502 15.548,-7.722 0,0 0,0" /></g><g
               style="fill:#da46e0;fill-opacity:1"
               transform="translate(651.0498,493.3535)"
               id="g1251"><path
                 id="path1253"
                 style="fill:#da46e0;fill-opacity:1;fill-rule:nonzero;stroke:none"
                 d="M 0,0 C 0,0 35.23,-16.116 18.727,-35.481 6.37,-49.982 -8.102,-31.184 -0.513,-17.942 5.905,-6.745 0,0 0,0" /></g><g
               style="fill:#a048c9;fill-opacity:1"
               transform="translate(761.0498,409.3535)"
               id="g1255"><path
                 id="path1257"
                 style="fill:#a048c9;fill-opacity:1;fill-rule:nonzero;stroke:none"
                 d="M 0,0 C 0,0 35.23,-16.116 18.727,-35.481 6.37,-49.982 -8.102,-31.184 -0.513,-17.942 5.905,-6.745 0,0 0,0" /></g><g
               style="fill:#a048c9;fill-opacity:1"
               transform="translate(739.8604,354.3052)"
               id="g1259"><path
                 id="path1261"
                 style="fill:#a048c9;fill-opacity:1;fill-rule:nonzero;stroke:none"
                 d="M 0,0 C 0,0 64.963,-29.717 34.531,-65.425 11.746,-92.165 -14.938,-57.501 -0.945,-33.083 10.89,-12.437 0,0 0,0" /></g><g
               style="fill:#da46e0;fill-opacity:1"
               transform="translate(159.6821,226.1348)"
               id="g1267"><path
                 id="path1269"
                 style="fill:#da46e0;fill-opacity:1;fill-rule:nonzero;stroke:none"
                 d="m 0,0 c 0,0 15.197,-54.274 -21.817,-54.136 -27.716,0.104 -20.432,33.836 1.406,37.849 C -1.942,-12.898 0,0 0,0" /></g><g
               style="fill:#a048c9;fill-opacity:1"
               transform="translate(265.2451,445.6094)"
               id="g1275"><path
                 id="path1277"
                 style="fill:#a048c9;fill-opacity:1;fill-rule:nonzero;stroke:none"
                 d="M 0,0 C 0,0 -10.559,98.582 53.614,87.564 101.666,79.314 79.206,22.909 40.151,22.312 7.126,21.808 0,0 0,0" /></g><g
               style="fill:#a048c9;fill-opacity:1"
               transform="translate(381.8516,525.8418)"
               id="g1291"><path
                 id="path1293"
                 style="fill:#a048c9;fill-opacity:1;fill-rule:nonzero;stroke:none"
                 d="M 0,0 C 0,0 30.594,94.307 84.682,58.058 125.183,30.916 81.658,-11.411 45.762,3.983 15.405,17 0,0 0,0" /></g><g
               style="fill:#a048c9;fill-opacity:1"
               transform="translate(379.1416,473.6143)"
               id="g1295"><path
                 id="path1297"
                 style="fill:#a048c9;fill-opacity:1;fill-rule:nonzero;stroke:none"
                 d="M 0,0 C 0,0 80.768,-57.501 29.949,-98.207 -8.102,-128.688 -35.405,-74.463 -9.942,-44.845 11.59,-19.799 0,0 0,0" /></g><g
               style="fill:#a048c9;fill-opacity:1"
               transform="translate(709.709,533.9766)"
               id="g1299"><path
                 id="path1301"
                 style="fill:#a048c9;fill-opacity:1;fill-rule:nonzero;stroke:none"
                 d="M 0,0 C 0,0 80.965,57.221 102.586,-4.196 118.776,-50.183 58.574,-58.028 39.038,-24.207 22.517,4.394 0,0 0,0" /></g><g
               style="fill:#a048c9;fill-opacity:1"
               transform="translate(109.0156,194.1201)"
               id="g1303"><path
                 id="path1305"
                 style="fill:#a048c9;fill-opacity:1;fill-rule:nonzero;stroke:none"
                 d="m 0,0 c 0,0 41.292,-126.772 -46.206,-130.11 -65.516,-2.501 -51.642,77.955 -0.421,89.594 C -3.314,-30.673 0,0 0,0" /></g><g
               style="fill:#a048c9;fill-opacity:1"
               transform="translate(267.8984,512.7119)"
               id="g1307"><path
                 id="path1309"
                 style="fill:#a048c9;fill-opacity:1;fill-rule:nonzero;stroke:none"
                 d="M 0,0 C 0,0 -26.59,82.66 30.402,84.627 73.077,86.1 63.849,33.734 30.463,26.276 2.232,19.968 0,0 0,0" /></g><g
               style="fill:#da46e0;fill-opacity:1"
               transform="translate(439.3779,518.9727)"
               id="g1315"><path
                 id="path1317"
                 style="fill:#da46e0;fill-opacity:1;fill-rule:nonzero;stroke:none"
                 d="M 0,0 C 0,0 60.448,4.445 52.41,-34.541 46.391,-63.733 12.386,-48.861 12.815,-24.987 13.179,-4.798 0,0 0,0" /></g><g
               style="fill:#a048c9;fill-opacity:1"
               transform="translate(822.7041,530.1904)"
               id="g1319"><path
                 id="path1321"
                 style="fill:#a048c9;fill-opacity:1;fill-rule:nonzero;stroke:none"
                 d="M 0,0 C 0,0 -38.437,46.864 -1.935,62.739 25.4,74.625 32.819,38.259 13.052,24.864 -3.664,13.538 0,0 0,0" /></g><g
               style="fill:#d64398;fill-opacity:0.90196078"
               transform="translate(419.2568,377.0312)"
               id="g1323"><path
                 id="path1325"
                 style="fill:#d64398;fill-opacity:0.90196078;fill-rule:nonzero;stroke:none"
                 d="m 0,0 c 0,0 6.995,-60.206 -32.296,-53.822 -29.42,4.781 -15.999,39.384 7.873,39.963 C -4.238,-13.369 0,0 0,0" /></g><g
               style="fill:#a048c9;fill-opacity:1"
               transform="translate(147.9492,60.1553)"
               id="g1327"><path
                 id="path1329"
                 style="fill:#a048c9;fill-opacity:1;fill-rule:nonzero;stroke:none"
                 d="m 0,0 c 0,0 39.406,-45.796 10.774,-53.208 -21.439,-5.55 -33.023,26.321 -18.216,34.38 C 5.077,-12.014 0,0 0,0" /></g><g
               style="fill:#d64398;fill-opacity:0.90196066"
               transform="translate(167.1406,376.1924)"
               id="g1331"><path
                 id="path1333"
                 style="fill:#d64398;fill-opacity:0.90196066;fill-rule:nonzero;stroke:none"
                 d="m 0,0 c 0,0 -124.341,-77.518 -151.001,14.943 -19.963,69.231 69.53,75.671 95.469,24.102 C -33.598,-4.561 0,0 0,0" /></g><g
               style="fill:#d64398;fill-opacity:0.90196066"
               transform="translate(428.9404,447.853)"
               id="g1335"><path
                 id="path1337"
                 style="fill:#d64398;fill-opacity:0.90196066;fill-rule:nonzero;stroke:none"
                 d="M 0,0 C 0,0 137.234,-51.342 80.174,-128.828 37.45,-186.845 -22.193,-119.817 2.885,-67.823 24.091,-23.858 0,0 0,0" /></g><g
               style="fill:#d64398;fill-opacity:0.90196066"
               transform="translate(517.2422,406.0625)"
               id="g1339"><path
                 id="path1341"
                 style="fill:#d64398;fill-opacity:0.90196066;fill-rule:nonzero;stroke:none"
                 d="M 0,0 C 0,0 108.631,-8.962 83.477,-75.982 64.642,-126.163 8.375,-90.261 15.798,-47.965 22.075,-12.2 0,0 0,0" /></g><g
               style="fill:#d64398;fill-opacity:0.90196066"
               transform="translate(633.1562,428.0259)"
               id="g1343"><path
                 id="path1345"
                 style="fill:#d64398;fill-opacity:0.90196066;fill-rule:nonzero;stroke:none"
                 d="M 0,0 C 0,0 85.058,68.162 112.857,2.195 133.671,-47.198 68.126,-59.799 44.443,-23.978 24.419,6.313 0,0 0,0" /></g><g
               style="fill:#d64398;fill-opacity:0.90196066"
               transform="translate(123.0132,97.1016)"
               id="g1347"><path
                 id="path1349"
                 style="fill:#d64398;fill-opacity:0.90196066;fill-rule:nonzero;stroke:none"
                 d="m 0,0 c 0,0 35.958,-69.056 -21.183,-85.621 -42.783,-12.404 -39.324,38.094 -6.553,53.593 C -0.026,-18.923 0,0 0,0" /></g><g
               style="fill:#a048c9;fill-opacity:1"
               transform="translate(200.9741,371.6572)"
               id="g1351"><path
                 id="path1353"
                 style="fill:#a048c9;fill-opacity:1;fill-rule:nonzero;stroke:none"
                 d="m 0,0 c 0,0 -199.902,-28.518 -158.151,-128.538 31.26,-74.891 141.313,-38.483 122.38,42.059 C -45.764,-43.965 0,0 0,0" /></g><g
               style="fill:#da46e0;fill-opacity:1"
               transform="translate(580.4043,399.3242)"
               id="g1359"><path
                 id="path1361"
                 style="fill:#da46e0;fill-opacity:1;fill-rule:nonzero;stroke:none"
                 d="M 0,0 C 0,0 57.729,-52.87 77.421,-15.754 92.165,12.038 54.181,36.05 34.71,10.561 24.432,-2.893 0,0 0,0" /></g><g
               style="fill:#da46e0;fill-opacity:1"
               transform="translate(267.6523,349.6484)"
               id="g1375"><path
                 id="path1377"
                 style="fill:#da46e0;fill-opacity:1;fill-rule:nonzero;stroke:none"
                 d="M 0,0 C 0,0 -5.488,174.611 -114.814,139.812 -196.672,113.756 -143.791,20.765 -75.486,29.199 -17.727,36.331 0,0 0,0" /></g><g
               style="fill:#da46e0;fill-opacity:1"
               transform="translate(457.4561,458.6841)"
               id="g1379"><path
                 id="path1381"
                 style="fill:#da46e0;fill-opacity:1;fill-rule:nonzero;stroke:none"
                 d="M 0,0 C 0,0 133.285,-112.935 180.716,-8.466 216.229,69.754 111.769,92.816 72.258,36.464 38.846,-11.188 0,0 0,0" /></g><g
               style="fill:#d64398;fill-opacity:0.90196066"
               transform="translate(254.041,441.2344)"
               id="g1383"><path
                 id="path1385"
                 style="fill:#d64398;fill-opacity:0.90196066;fill-rule:nonzero;stroke:none"
                 d="M 0,0 C 0,0 29.041,108.149 -35.471,116.976 -108.492,126.967 -102.689,54.2 -63.68,56.211 -25.551,58.177 0,0 0,0" /></g><g
               style="fill:#d64398;fill-opacity:0.90196066"
               transform="translate(640.6113,517.5757)"
               id="g1391"><path
                 id="path1393"
                 style="fill:#d64398;fill-opacity:0.90196066;fill-rule:nonzero;stroke:none"
                 d="M 0,0 C 0,0 51.229,-72.723 86.119,-44.583 125.61,-12.731 75.646,25.831 58.229,5.344 41.205,-14.68 0,0 0,0" /></g><g
               style="fill:#da46e0;fill-opacity:1"
               transform="translate(106.0962,441.0923)"
               id="g1395"><path
                 id="path1397"
                 style="fill:#da46e0;fill-opacity:1;fill-rule:nonzero;stroke:none"
                 d="m 0,0 c 0,0 9.875,60.805 -34.754,55.502 -33.417,-3.97 -19.95,-43.653 6.95,-45.46 C -5.057,8.515 0,0 0,0" /></g><g
               style="fill:#da46e0;fill-opacity:1"
               transform="translate(7.5986,429.1152)"
               id="g1399"><path
                 id="path1401"
                 style="fill:#da46e0;fill-opacity:1;fill-rule:nonzero;stroke:none"
                 d="M 0,0 C 0,0 39.781,47.034 -1.205,65.475 -31.894,79.282 -40.788,38.332 -18.661,22.928 0.05,9.904 0,0 0,0" /></g><g
               style="fill:#da46e0;fill-opacity:1"
               transform="translate(111.6177,466.2427)"
               id="g1407"><path
                 id="path1409"
                 style="fill:#da46e0;fill-opacity:1;fill-rule:nonzero;stroke:none"
                 d="M 0,0 C 0,0 57.085,81.063 -4.369,102.582 -50.383,118.694 -58.128,58.479 -24.272,38.998 4.355,22.526 0,0 0,0" /></g><g
               style="fill:#d64398;fill-opacity:0.90196078"
               transform="translate(221.4277,264.8867)"
               id="g1415"><path
                 id="path1417"
                 style="fill:#d64398;fill-opacity:0.90196078;fill-rule:nonzero;stroke:none"
                 d="M 0,0 C 0,0 73.315,66.744 17.994,101.085 -23.428,126.798 -44.055,69.698 -15.232,43.335 9.14,21.045 0,0 0,0" /></g><g
               style="fill:#a048c9;fill-opacity:1"
               transform="translate(608.4795,535.1011)"
               id="g1419"><path
                 id="path1421"
                 style="fill:#a048c9;fill-opacity:1;fill-rule:nonzero;stroke:none"
                 d="M 0,0 C 0,0 87.833,-45.991 101.128,17.75 111.082,65.477 50.372,65.279 35.486,29.165 22.902,-1.37 0,0 0,0" /></g><g
               style="fill:#da46e0;fill-opacity:1"
               transform="translate(271.9473,346.1963)"
               id="g1423"><path
                 id="path1425"
                 style="fill:#da46e0;fill-opacity:1;fill-rule:nonzero;stroke:none"
                 d="M 0,0 C 0,0 99.534,48.104 51.284,102.354 15.158,142.972 -24.994,88.473 -2.543,51.153 16.441,19.598 0,0 0,0" /></g><g
               style="fill:#da46e0;fill-opacity:1"
               transform="translate(797.5811,480.1807)"
               id="g1427"><path
                 id="path1429"
                 style="fill:#da46e0;fill-opacity:1;fill-rule:nonzero;stroke:none"
                 d="M 0,0 C 0,0 108.932,-18.841 101.288,53.358 95.564,107.416 31.189,86.483 27.715,43.07 24.777,6.361 0,0 0,0" /></g><g
               style="fill:#a048c9;fill-opacity:1"
               transform="translate(186.8228,351.2168)"
               id="g1435"><path
                 id="path1437"
                 style="fill:#a048c9;fill-opacity:1;fill-rule:nonzero;stroke:none"
                 d="m 0,0 c 0,0 -38.605,-78.118 3.02,-91.316 31.168,-9.884 34.716,31.567 13.883,44.54 C -1.899,-35.069 0,0 0,0" /></g><g
               style="fill:#a048c9;fill-opacity:1"
               transform="translate(34.2607,253.4648)"
               id="g1439"><path
                 id="path1441"
                 style="fill:#a048c9;fill-opacity:1;fill-rule:nonzero;stroke:none"
                 d="m 0,0 c 0,0 -29.439,-102.695 13.739,-96.185 63,9.5 33.412,43.547 10.711,52.873 C 3.962,-34.896 0,0 0,0" /></g><g
               style="fill:#da46e0;fill-opacity:1"
               transform="translate(311.4746,465.9634)"
               id="g1443"><path
                 id="path1445"
                 style="fill:#da46e0;fill-opacity:1;fill-rule:nonzero;stroke:none"
                 d="M 0,0 C 0,0 38.496,-44.022 59.399,-11.804 75.05,12.321 41.622,25.158 25.734,8.473 12.302,-5.638 0,0 0,0" /></g><g
               style="fill:#d64398;fill-opacity:0.90196078"
               transform="translate(528.2285,336.4043)"
               id="g1447"><path
                 id="path1449"
                 style="fill:#d64398;fill-opacity:0.90196078;fill-rule:nonzero;stroke:none"
                 d="m 0,0 c 0,0 -38.149,-44.322 -3.306,-60.471 26.093,-12.09 34.085,22.815 15.325,36.19 C -3.846,-12.974 0,0 0,0" /></g><g
               style="fill:#a048c9;fill-opacity:1"
               transform="translate(679.5703,389.8071)"
               id="g1451"><path
                 id="path1453"
                 style="fill:#a048c9;fill-opacity:1;fill-rule:nonzero;stroke:none"
                 d="m 0,0 c 0,0 -12.664,-57.091 25.675,-54.849 28.708,1.682 19.25,36.217 -3.605,39.134 C 2.745,-13.25 0,0 0,0" /></g><g
               style="fill:#da46e0;fill-opacity:1"
               transform="translate(326.7441,540.5742)"
               id="g1455"><path
                 id="path1457"
                 style="fill:#da46e0;fill-opacity:1;fill-rule:nonzero;stroke:none"
                 d="M 0,0 C 0,0 33.876,-38.737 52.27,-10.387 66.041,10.842 36.626,22.138 22.646,7.456 10.826,-4.961 0,0 0,0" /></g><g
               style="fill:#a048c9;fill-opacity:1"
               transform="translate(224.8467,243.7988)"
               id="g1459"><path
                 id="path1461"
                 style="fill:#a048c9;fill-opacity:1;fill-rule:nonzero;stroke:none"
                 d="m 0,0 c 0,0 -52.37,26.024 -59.415,-11.729 -5.273,-28.27 30.523,-27.395 38.852,-5.914 C -13.522,0.521 0,0 0,0" /></g><g
               style="fill:#da46e0;fill-opacity:1"
               transform="translate(201.6279,566.0815)"
               id="g1463"><path
                 id="path1465"
                 style="fill:#da46e0;fill-opacity:1;fill-rule:nonzero;stroke:none"
                 d="M 0,0 C 0,0 58.122,-6.454 51.772,31.422 47.015,59.783 13.695,46.667 13.252,23.632 12.879,4.154 0,0 0,0" /></g><g
               style="fill:#d64298;fill-opacity:1"
               id="g1467"><g
                 style="fill:#d64298;fill-opacity:1"
                 id="g1469" /><g
                 style="fill:#d64298;fill-opacity:1"
                 id="g1481"><g
                   style="opacity:0.89999402;fill:#d64298;fill-opacity:1"
                   id="g1479"
                   clip-path="url(#clipPath1473)"><g
                     style="fill:#d64298;fill-opacity:1"
                     id="g1477"
                     transform="translate(327.8496,182.7783)"><path
                       id="path1475"
                       style="fill:#d64298;fill-opacity:1;fill-rule:nonzero;stroke:none"
                       d="m 0,0 c -9.152,-7.389 -18.523,-13.173 -17.462,-20.762 1.058,-7.592 12.167,-11.331 9.241,-16.629 -2.927,-5.295 -11.548,-7.717 -13.1,-11.192 -1.551,-3.474 9.161,-7.272 5.491,-13.077 -3.667,-5.809 -11.295,-0.764 -8.555,-17.484 2.741,-16.721 -4.141,-28.676 -25.813,-28.035 -21.67,0.64 -54.344,4.228 -71.212,8.387 -16.866,4.163 -29.854,9.68 -30.96,3.009 -0.679,-4.099 0.47,-43.37 9.745,-78.096 -1.294,3.99 -2.866,8.009 -4.746,12.043 -27.919,59.934 -101.077,95.709 -7.087,165.505 68.989,51.232 95.073,102.394 103.722,139.496 -0.005,-0.087 -0.014,-0.18 -0.019,-0.262 0,0 18.679,-44.358 17.934,-62.379 -0.483,-11.695 -4.967,-19.659 -4.68,-27.57 5.324,-2.163 13.839,-4.221 17.747,2.521 -1.958,-5.341 -9.437,-9.187 -17.077,-6.777 0.825,-2.9 2.472,-5.881 5.377,-9.111 C -19.082,25.839 9.147,7.383 0,0" /></g></g></g></g></g></g></g></g></g></svg>