<?xml version="1.0" encoding="UTF-8" standalone="no"?>
<!-- Created with Inkscape (http://www.inkscape.org/) -->

<svg
   xmlns:dc="http://purl.org/dc/elements/1.1/"
   xmlns:cc="http://creativecommons.org/ns#"
   xmlns:rdf="http://www.w3.org/1999/02/22-rdf-syntax-ns#"
   xmlns:svg="http://www.w3.org/2000/svg"
   xmlns="http://www.w3.org/2000/svg"
   xmlns:sodipodi="http://sodipodi.sourceforge.net/DTD/sodipodi-0.dtd"
   xmlns:inkscape="http://www.inkscape.org/namespaces/inkscape"
   width="864mm"
   height="200mm"
   viewBox="0 0 864 200"
   version="1.1"
   id="svg869"
   sodipodi:docname="background.svg"
   inkscape:version="0.92.4 (5da689c313, 2019-01-14)">
  <defs
     id="defs863" />
  <sodipodi:namedview
     id="base"
     pagecolor="#ffffff"
     bordercolor="#666666"
     borderopacity="1.0"
     inkscape:pageopacity="0.0"
     inkscape:pageshadow="2"
     inkscape:zoom="0.24748737"
     inkscape:cx="1667.5532"
     inkscape:cy="714.02867"
     inkscape:document-units="mm"
     inkscape:current-layer="layer1"
     showgrid="true"
     showguides="true"
     inkscape:window-width="1366"
     inkscape:window-height="706"
     inkscape:window-x="-8"
     inkscape:window-y="-8"
     inkscape:window-maximized="1"
     inkscape:snap-others="false"
     inkscape:object-nodes="false"
     inkscape:snap-nodes="false">
    <inkscape:grid
       type="xygrid"
       id="grid5674"
       enabled="false" />
  </sodipodi:namedview>
  <metadata
     id="metadata866">
    <rdf:RDF>
      <cc:Work
         rdf:about="">
        <dc:format>image/svg+xml</dc:format>
        <dc:type
           rdf:resource="http://purl.org/dc/dcmitype/StillImage" />
        <dc:title></dc:title>
      </cc:Work>
    </rdf:RDF>
  </metadata>
  <g
     inkscape:label="Camada 1"
     inkscape:groupmode="layer"
     id="layer1"
     transform="translate(0,-97)">
    <g
       id="g861-4-9"
       transform="matrix(-1.0252,0,0,1.1055068,333.98679,137.8236)"
       style="stroke-width:0.2485292">
      <path
         sodipodi:nodetypes="ccccc"
         inkscape:connector-curvature="0"
         id="path5111-92-0"
         d="M 13.30303,42.909091 C 14.334944,29.077783 4.7152506,70.315892 32.502383,86.382406 45.261445,90.902632 64.730039,81.554582 59.721275,52.183819 44.87597,32.044284 30.60351,18.428702 36.787879,-10.878788 24.484886,4.5860265 13.296319,27.949042 13.30303,42.909091 Z"
         style="fill:#9955ff;stroke:#000000;stroke-width:0.2485292px;stroke-linecap:butt;stroke-linejoin:miter;stroke-opacity:0.10555558" />
      <path
         sodipodi:nodetypes="ccccc"
         inkscape:connector-curvature="0"
         id="path5111-9-1-8"
         d="m 66.025,68.046745 c 3.799304,-21.215756 10.978863,-29.776887 23.48485,-29.545454 14.018,-0.950847 25.94263,9.573228 20.25496,29.377405 C 91.636151,93.853014 86.679584,98.864296 89.50985,121.83462 73.536432,110.88687 62.137413,96.018211 66.025,68.046745 Z"
         style="fill:#d42aff;stroke:#000000;stroke-width:0.2485292px;stroke-linecap:butt;stroke-linejoin:miter;stroke-opacity:0.09444448" />
      <path
         sodipodi:nodetypes="ccccc"
         inkscape:connector-curvature="0"
         id="path5111-9-5-0-5"
         d="M 45.284283,14.841657 C 49.083583,4.350863 56.263143,0.11754382 68.769131,0.23198312 82.30861,-0.16981289 89.272403,4.9352869 87.41703,10.490802 67.719341,19.443687 60.738711,37.863017 68.769131,52.68818 52.795713,47.274723 41.396693,28.673024 45.284283,14.841657 Z"
         style="fill:#ff2a7f;stroke:#000000;stroke-width:0.2485292px;stroke-linecap:butt;stroke-linejoin:miter;stroke-opacity:0.09444448" />
      <path
         sodipodi:nodetypes="cccccc"
         inkscape:connector-curvature="0"
         id="path5152-1-4"
         d="M 69.389113,45.573287 C 63.242698,24.707375 88.164764,7.2287093 118.13662,1.1112697 c 21.93024,-4.7412686 41.42212,-2.3160891 50.89027,24.6416003 -1.1607,11.868532 1.11733,21.543314 -30.53416,32.141217 -21.5415,-3.489834 -13.25145,-5.811793 -29.46278,-19.28473 -28.806922,-7.742167 -29.81991,0.991196 -39.640837,6.96393 z"
         style="fill:#9955ff;stroke:#000000;stroke-width:0.2485292px;stroke-linecap:butt;stroke-linejoin:miter;stroke-opacity:0.07222224" />
      <path
         sodipodi:nodetypes="ccccc"
         inkscape:connector-curvature="0"
         id="path5154-6-1"
         d="M 57.318504,85.499617 C 14.915529,103.89208 16.311916,59.665286 5.3568695,57.108207 -0.42670245,81.017393 1.2436754,108.5823 32.676904,117.64083 c 23.916592,-3.96516 25.178868,-7.30304 29.462783,-11.78511 5.668586,-9.786562 2.673802,-20.358514 -4.821183,-20.356103 z"
         style="fill:#ff2a7f;stroke:#000000;stroke-width:0.2485292px;stroke-linecap:butt;stroke-linejoin:miter;stroke-opacity:0.13888891" />
      <path
         sodipodi:nodetypes="ccccccccc"
         inkscape:connector-curvature="0"
         id="path5158-9-9"
         d="m 110.8872,44.787408 c 1.58466,4.821183 3.93938,19.28473 2.67844,24.105913 -4.7251,8.72886 -10.75781,10.239921 -18.213362,25.712975 -4.850216,7.546944 -4.393688,12.971194 -2.142748,17.677674 2.60357,6.10106 6.399336,11.72525 16.07061,14.99923 8.57099,-1.75226 17.14198,-2.14732 25.71297,-10.71374 3.65854,-6.07511 7.3725,-12.03935 9.64237,-20.89179 0.80991,-7.72601 0.43727,-11.91447 -1.60706,-18.213357 -7.16001,-16.45526 -24.07617,-20.424185 -32.14122,-32.676905 z"
         style="fill:#ff2a7f;stroke:#000000;stroke-width:0.2485292px;stroke-linecap:butt;stroke-linejoin:miter;stroke-opacity:0.13333333" />
      <path
         sodipodi:nodetypes="ccccccccc"
         inkscape:connector-curvature="0"
         id="path5164-0-3"
         d="m 137.67155,62.465078 c 4.50654,7.338298 9.6572,9.523626 12.85648,27.320035 -4.33413,9.041716 -5.34728,16.422937 -6.96393,24.105917 4.64262,11.58159 9.28525,9.40729 13.92787,13.39217 7.85674,1.21564 15.71348,-0.14844 23.57022,-3.21412 9.07186,-5.71399 11.33539,-11.42799 14.99924,-17.14198 C 198.04321,95.365328 194.3635,89.102975 190.70456,82.821183 185.25899,75.142227 178.459,69.269169 168.74139,67.286261 157.56695,62.407902 147.42436,61.656945 137.67155,62.465078 Z"
         style="fill:#d42aff;stroke:#000000;stroke-width:0.2485292px;stroke-linecap:butt;stroke-linejoin:miter;stroke-opacity:0.10555558" />
      <path
         sodipodi:nodetypes="cccsscccccc"
         inkscape:connector-curvature="0"
         id="path5166-5-7"
         d="m 143.02842,59.250957 c -0.26356,0.263565 25.72343,-10.188504 27.32003,-17.141983 0.53569,-5.892557 3.21412,-3.214122 3.21412,-3.214122 0,0 2.65273,4.14708 7.49962,6.428243 6.79512,3.198083 18.85945,-4.268338 26.10274,-10.099943 3.54429,-2.853521 5.67773,-1.973228 4.9671,-2.220856 13.06092,1.892507 19.4361,13.286221 18.21336,25.177287 -2.40784,8.403933 -1.69588,14.85421 -14.46355,21.963165 -4.22977,1.685157 -5.93346,4.21234 -18.21335,3.214122 L 178.38376,67.821948 c -9.24246,-4.54963 -23.27172,-9.703688 -35.35534,-8.570991 z"
         style="fill:#ff2a7f;stroke:#000000;stroke-width:0.2485292px;stroke-linecap:butt;stroke-linejoin:miter;stroke-opacity:0.09444448" />
      <path
         sodipodi:nodetypes="ccsccc"
         inkscape:connector-curvature="0"
         id="path825-5-5"
         d="m 196.59711,88.713739 c 2.29615,9.08091 3.97821,18.622391 11.78512,23.570231 5.92122,2.12115 18.11603,7.25432 23.70122,5.8952 6.1201,-1.48929 34.41375,-19.876819 37.36709,-22.501501 -21.14267,11.982631 -48.07571,12.896981 -52.49732,-6.428243 -6.78537,-4.474419 -13.57074,-4.632249 -20.35611,-0.535687 z"
         style="fill:#9955ff;stroke:#000000;stroke-width:0.2485292px;stroke-linecap:butt;stroke-linejoin:miter;stroke-opacity:0.14444448" />
      <path
         sodipodi:nodetypes="ccccc"
         inkscape:connector-curvature="0"
         id="path827-6-5"
         d="m 198.20417,105.85573 c -5.47309,12.23845 -10.88607,14.49665 -12.3208,17.67767 2.49845,3.21767 22.63584,6.26433 17.67768,-2.67845 -4.54004,10.4345 20.56656,1.50825 32.14121,1.07139 -15.70392,-4.15295 -31.83911,-6.39928 -37.49809,-16.07061 z"
         style="fill:#ff2a7f;stroke:#000000;stroke-width:0.2485292px;stroke-linecap:butt;stroke-linejoin:miter;stroke-opacity:0.10555558" />
      <path
         sodipodi:nodetypes="cccc"
         inkscape:connector-curvature="0"
         id="path829-0-0"
         d="m 215.88184,81.749809 c 5.29283,11.940348 9.3518,19.287961 16.07061,19.820421 15.10976,2.40121 43.5326,-19.717959 42.85496,-42.85496 -22.45812,16.560073 -49.20157,24.978965 -58.92557,23.034539 z"
         style="fill:#d42aff;stroke:#000000;stroke-width:0.2485292px;stroke-linecap:butt;stroke-linejoin:miter;stroke-opacity:0.09444448" />
      <path
         sodipodi:nodetypes="ccccc"
         inkscape:connector-curvature="0"
         id="path831-5-9"
         d="m 223.91715,78 c 20.21659,-2.127346 40.40031,-16.563084 59.46125,-25.712974 9.51484,-12.458561 8.70763,-18.723893 11.78511,-27.320035 -22.12255,9.525229 -53.26413,-4.740957 -62.67536,29.462783 0.78397,9.337062 -2.18436,15.192273 -8.571,23.570226 z"
         style="fill:#8d5fd3;stroke:#000000;stroke-width:0.2485292px;stroke-linecap:butt;stroke-linejoin:miter;stroke-opacity:0.09444448" />
      <path
         sodipodi:nodetypes="ccccccc"
         inkscape:connector-curvature="0"
         id="path835-8-6"
         d="m 40.176522,19.074435 c -0.189801,-9.87034 -6.585525,-18.85411956 2.142748,-29.99847 25.426944,-16.873191 38.268201,-6.567753 41.247895,-5.356869 16.605005,13.0145548 40.176485,-4.982412 56.782815,-4.821183 C 123.92225,-11.629793 107.49451,6.339341 91.066782,6.7536348 87.395972,-1.2831784 76.075166,-4.1921307 61.068313,-2.3530434 43.84615,3.8104329 44.213246,15.614965 40.176522,19.074435 Z"
         style="fill:#dd55ff;stroke:#000000;stroke-width:0.2485292px;stroke-linecap:butt;stroke-linejoin:miter;stroke-opacity:0.16111115" />
      <path
         sodipodi:nodetypes="ccccccc"
         inkscape:connector-curvature="0"
         id="path837-7-8"
         d="m 121.60094,-3.4244173 20.3561,-13.3921737 c 19.79883,-8.082396 36.42401,-5.585934 51.96164,0.535687 19.88623,5.061784 31.35026,6.7546855 44.46202,9.106678 -27.51959,2.9240419 -59.35396,0.9753052 -68.03225,25.177287 C 168.36068,15.935598 163.27815,5.2793318 151.59941,0.32539135 140.80134,-5.81025 131.12864,-3.6405945 121.60094,-3.4244173 Z"
         style="fill:#ff2a7f;stroke:#000000;stroke-width:0.2485292px;stroke-linecap:butt;stroke-linejoin:miter;stroke-opacity:0.13888891" />
      <path
         sodipodi:nodetypes="ccccccc"
         inkscape:connector-curvature="0"
         id="path839-5-4"
         d="M 171.95551,27.645426 C 171.98431,13.351015 178.4588,8.946065 186.95475,3.0038262 207.26635,-6.6018259 253.56893,-4.96361 268.37916,1.9324523 254.86544,13.663574 231.89182,24.128412 233.02383,45.858782 227.74839,40.923787 221.69117,30.795991 212.13203,28.7168 204.05606,33.629346 199.59491,39.643169 186.41906,42.108974 178.12708,43.36168 174.59765,36.27993 171.95551,27.645426 Z"
         style="fill:#d42aff;stroke:#000000;stroke-width:0.2485292px;stroke-linecap:butt;stroke-linejoin:miter;stroke-opacity:0.12222224" />
      <path
         sodipodi:nodetypes="ccccccc"
         inkscape:connector-curvature="0"
         id="path843-3-6"
         d="m 234.63089,41.573287 c 3.4236,-5.535432 4.01845,-11.070864 11.24942,-16.606296 6.55311,-9.150585 19.76444,-18.3750824 26.24866,-20.8917909 11.17982,5.6746533 29.53334,0.2160116 44.99771,-2.6784349 -7.89929,7.2443424 -20.21884,23.3224478 -29.46278,22.4988518 -16.94585,3.991239 -26.77003,2.727311 -38.03378,5.892557 -7.95137,3.928371 -11.16021,7.856742 -14.99923,11.785113 z"
         style="fill:#ff2a7f;stroke:#000000;stroke-width:0.2485292px;stroke-linecap:butt;stroke-linejoin:miter;stroke-opacity:0.10555558" />
    </g>
    <g
       id="g861-4-9-4"
       transform="matrix(1.0252,0,0,1.1055068,529.63045,138.13285)"
       style="stroke-width:0.2485292">
      <path
         sodipodi:nodetypes="ccccc"
         inkscape:connector-curvature="0"
         id="path5111-92-0-9"
         d="M 13.30303,42.909091 C 14.334944,29.077783 4.7152506,70.315892 32.502383,86.382406 45.261445,90.902632 64.730039,81.554582 59.721275,52.183819 44.87597,32.044284 30.60351,18.428702 36.787879,-10.878788 24.484886,4.5860265 13.296319,27.949042 13.30303,42.909091 Z"
         style="fill:#9955ff;stroke:#000000;stroke-width:0.2485292px;stroke-linecap:butt;stroke-linejoin:miter;stroke-opacity:0.10555558" />
      <path
         sodipodi:nodetypes="ccccc"
         inkscape:connector-curvature="0"
         id="path5111-9-1-8-5"
         d="m 66.025,68.046745 c 3.799304,-21.215756 10.978863,-29.776887 23.48485,-29.545454 14.018,-0.950847 25.94263,9.573228 20.25496,29.377405 C 91.636151,93.853014 86.679584,98.864296 89.50985,121.83462 73.536432,110.88687 62.137413,96.018211 66.025,68.046745 Z"
         style="fill:#d42aff;stroke:#000000;stroke-width:0.2485292px;stroke-linecap:butt;stroke-linejoin:miter;stroke-opacity:0.09444448" />
      <path
         sodipodi:nodetypes="ccccc"
         inkscape:connector-curvature="0"
         id="path5111-9-5-0-5-3"
         d="M 45.284283,14.841657 C 49.083583,4.350863 56.263143,0.11754382 68.769131,0.23198312 82.30861,-0.16981289 89.272403,4.9352869 87.41703,10.490802 67.719341,19.443687 60.738711,37.863017 68.769131,52.68818 52.795713,47.274723 41.396693,28.673024 45.284283,14.841657 Z"
         style="fill:#ff2a7f;stroke:#000000;stroke-width:0.2485292px;stroke-linecap:butt;stroke-linejoin:miter;stroke-opacity:0.09444448" />
      <path
         sodipodi:nodetypes="cccccc"
         inkscape:connector-curvature="0"
         id="path5152-1-4-4"
         d="M 69.389113,45.573287 C 63.242698,24.707375 88.164764,7.2287093 118.13662,1.1112697 c 21.93024,-4.7412686 41.42212,-2.3160891 50.89027,24.6416003 -1.1607,11.868532 1.11733,21.543314 -30.53416,32.141217 -21.5415,-3.489834 -13.25145,-5.811793 -29.46278,-19.28473 -28.806922,-7.742167 -29.81991,0.991196 -39.640837,6.96393 z"
         style="fill:#9955ff;stroke:#000000;stroke-width:0.2485292px;stroke-linecap:butt;stroke-linejoin:miter;stroke-opacity:0.07222224" />
      <path
         sodipodi:nodetypes="ccccc"
         inkscape:connector-curvature="0"
         id="path5154-6-1-1"
         d="M 57.318504,85.499617 C 14.915529,103.89208 16.311916,59.665286 5.3568695,57.108207 -0.42670245,81.017393 1.2436754,108.5823 32.676904,117.64083 c 23.916592,-3.96516 25.178868,-7.30304 29.462783,-11.78511 5.668586,-9.786562 2.673802,-20.358514 -4.821183,-20.356103 z"
         style="fill:#ff2a7f;stroke:#000000;stroke-width:0.2485292px;stroke-linecap:butt;stroke-linejoin:miter;stroke-opacity:0.13888891" />
      <path
         sodipodi:nodetypes="ccccccccc"
         inkscape:connector-curvature="0"
         id="path5158-9-9-2"
         d="m 110.8872,44.787408 c 1.58466,4.821183 3.93938,19.28473 2.67844,24.105913 -4.7251,8.72886 -10.75781,10.239921 -18.213362,25.712975 -4.850216,7.546944 -4.393688,12.971194 -2.142748,17.677674 2.60357,6.10106 6.399336,11.72525 16.07061,14.99923 8.57099,-1.75226 17.14198,-2.14732 25.71297,-10.71374 3.65854,-6.07511 7.3725,-12.03935 9.64237,-20.89179 0.80991,-7.72601 0.43727,-11.91447 -1.60706,-18.213357 -7.16001,-16.45526 -24.07617,-20.424185 -32.14122,-32.676905 z"
         style="fill:#ff2a7f;stroke:#000000;stroke-width:0.2485292px;stroke-linecap:butt;stroke-linejoin:miter;stroke-opacity:0.13333333" />
      <path
         sodipodi:nodetypes="ccccccccc"
         inkscape:connector-curvature="0"
         id="path5164-0-3-7"
         d="m 137.67155,62.465078 c 4.50654,7.338298 9.6572,9.523626 12.85648,27.320035 -4.33413,9.041716 -5.34728,16.422937 -6.96393,24.105917 4.64262,11.58159 9.28525,9.40729 13.92787,13.39217 7.85674,1.21564 15.71348,-0.14844 23.57022,-3.21412 9.07186,-5.71399 11.33539,-11.42799 14.99924,-17.14198 C 198.04321,95.365328 194.3635,89.102975 190.70456,82.821183 185.25899,75.142227 178.459,69.269169 168.74139,67.286261 157.56695,62.407902 147.42436,61.656945 137.67155,62.465078 Z"
         style="fill:#d42aff;stroke:#000000;stroke-width:0.2485292px;stroke-linecap:butt;stroke-linejoin:miter;stroke-opacity:0.10555558" />
      <path
         sodipodi:nodetypes="cccsscccccc"
         inkscape:connector-curvature="0"
         id="path5166-5-7-4"
         d="m 143.02842,59.250957 c -0.26356,0.263565 25.72343,-10.188504 27.32003,-17.141983 0.53569,-5.892557 3.21412,-3.214122 3.21412,-3.214122 0,0 2.65273,4.14708 7.49962,6.428243 6.79512,3.198083 18.85945,-4.268338 26.10274,-10.099943 3.54429,-2.853521 5.67773,-1.973228 4.9671,-2.220856 13.06092,1.892507 19.4361,13.286221 18.21336,25.177287 -2.40784,8.403933 -1.69588,14.85421 -14.46355,21.963165 -4.22977,1.685157 -5.93346,4.21234 -18.21335,3.214122 L 178.38376,67.821948 c -9.24246,-4.54963 -23.27172,-9.703688 -35.35534,-8.570991 z"
         style="fill:#ff2a7f;stroke:#000000;stroke-width:0.2485292px;stroke-linecap:butt;stroke-linejoin:miter;stroke-opacity:0.09444448" />
      <path
         sodipodi:nodetypes="ccsccc"
         inkscape:connector-curvature="0"
         id="path825-5-5-9"
         d="m 196.59711,88.713739 c 2.29615,9.08091 3.97821,18.622391 11.78512,23.570231 5.92122,2.12115 18.11603,7.25432 23.70122,5.8952 6.1201,-1.48929 34.41375,-19.876819 37.36709,-22.501501 -21.14267,11.982631 -48.07571,12.896981 -52.49732,-6.428243 -6.78537,-4.474419 -13.57074,-4.632249 -20.35611,-0.535687 z"
         style="fill:#9955ff;stroke:#000000;stroke-width:0.2485292px;stroke-linecap:butt;stroke-linejoin:miter;stroke-opacity:0.14444448" />
      <path
         sodipodi:nodetypes="ccccc"
         inkscape:connector-curvature="0"
         id="path827-6-5-0"
         d="m 198.20417,105.85573 c -5.47309,12.23845 -10.88607,14.49665 -12.3208,17.67767 2.49845,3.21767 22.63584,6.26433 17.67768,-2.67845 -4.54004,10.4345 20.56656,1.50825 32.14121,1.07139 -15.70392,-4.15295 -31.83911,-6.39928 -37.49809,-16.07061 z"
         style="fill:#ff2a7f;stroke:#000000;stroke-width:0.2485292px;stroke-linecap:butt;stroke-linejoin:miter;stroke-opacity:0.10555558" />
      <path
         sodipodi:nodetypes="cccc"
         inkscape:connector-curvature="0"
         id="path829-0-0-8"
         d="m 215.88184,81.749809 c 5.29283,11.940348 9.3518,19.287961 16.07061,19.820421 15.10976,2.40121 43.5326,-19.717959 42.85496,-42.85496 -22.45812,16.560073 -49.20157,24.978965 -58.92557,23.034539 z"
         style="fill:#d42aff;stroke:#000000;stroke-width:0.2485292px;stroke-linecap:butt;stroke-linejoin:miter;stroke-opacity:0.09444448" />
      <path
         sodipodi:nodetypes="ccccc"
         inkscape:connector-curvature="0"
         id="path831-5-9-9"
         d="m 223.91715,78 c 20.21659,-2.127346 40.40031,-16.563084 59.46125,-25.712974 9.51484,-12.458561 8.70763,-18.723893 11.78511,-27.320035 -22.12255,9.525229 -53.26413,-4.740957 -62.67536,29.462783 0.78397,9.337062 -2.18436,15.192273 -8.571,23.570226 z"
         style="fill:#8d5fd3;stroke:#000000;stroke-width:0.2485292px;stroke-linecap:butt;stroke-linejoin:miter;stroke-opacity:0.09444448" />
      <path
         sodipodi:nodetypes="ccccccc"
         inkscape:connector-curvature="0"
         id="path835-8-6-0"
         d="m 40.176522,19.074435 c -0.189801,-9.87034 -6.585525,-18.85411956 2.142748,-29.99847 25.426944,-16.873191 38.268201,-6.567753 41.247895,-5.356869 16.605005,13.0145548 40.176485,-4.982412 56.782815,-4.821183 C 123.92225,-11.629793 107.49451,6.339341 91.066782,6.7536348 87.395972,-1.2831784 76.075166,-4.1921307 61.068313,-2.3530434 43.84615,3.8104329 44.213246,15.614965 40.176522,19.074435 Z"
         style="fill:#dd55ff;stroke:#000000;stroke-width:0.2485292px;stroke-linecap:butt;stroke-linejoin:miter;stroke-opacity:0.16111115" />
      <path
         sodipodi:nodetypes="ccccccc"
         inkscape:connector-curvature="0"
         id="path837-7-8-1"
         d="m 121.60094,-3.4244173 20.3561,-13.3921737 c 19.79883,-8.082396 36.42401,-5.585934 51.96164,0.535687 19.88623,5.061784 31.35026,6.7546855 44.46202,9.106678 -27.51959,2.9240419 -59.35396,0.9753052 -68.03225,25.177287 C 168.36068,15.935598 163.27815,5.2793318 151.59941,0.32539135 140.80134,-5.81025 131.12864,-3.6405945 121.60094,-3.4244173 Z"
         style="fill:#ff2a7f;stroke:#000000;stroke-width:0.2485292px;stroke-linecap:butt;stroke-linejoin:miter;stroke-opacity:0.13888891" />
      <path
         sodipodi:nodetypes="ccccccc"
         inkscape:connector-curvature="0"
         id="path839-5-4-0"
         d="M 171.95551,27.645426 C 171.98431,13.351015 178.4588,8.946065 186.95475,3.0038262 207.26635,-6.6018259 253.56893,-4.96361 268.37916,1.9324523 254.86544,13.663574 231.89182,24.128412 233.02383,45.858782 227.74839,40.923787 221.69117,30.795991 212.13203,28.7168 204.05606,33.629346 199.59491,39.643169 186.41906,42.108974 178.12708,43.36168 174.59765,36.27993 171.95551,27.645426 Z"
         style="fill:#d42aff;stroke:#000000;stroke-width:0.2485292px;stroke-linecap:butt;stroke-linejoin:miter;stroke-opacity:0.12222224" />
      <path
         sodipodi:nodetypes="ccccccc"
         inkscape:connector-curvature="0"
         id="path843-3-6-0"
         d="m 234.63089,41.573287 c 3.4236,-5.535432 4.01845,-11.070864 11.24942,-16.606296 6.55311,-9.150585 19.76444,-18.3750824 26.24866,-20.8917909 11.17982,5.6746533 29.53334,0.2160116 44.99771,-2.6784349 -7.89929,7.2443424 -20.21884,23.3224478 -29.46278,22.4988518 -16.94585,3.991239 -26.77003,2.727311 -38.03378,5.892557 -7.95137,3.928371 -11.16021,7.856742 -14.99923,11.785113 z"
         style="fill:#ff2a7f;stroke:#000000;stroke-width:0.2485292px;stroke-linecap:butt;stroke-linejoin:miter;stroke-opacity:0.10555558" />
    </g>
    <path
       style="fill:#ff2a7f;stroke:#000000;stroke-width:0.26458332px;stroke-linecap:butt;stroke-linejoin:miter;stroke-opacity:0"
       d="m 423.4903,270.57539 c -18.58317,-12.73363 -35.0961,-25.50872 -47.64677,-38.36317 3.11475,-20.54421 12.82581,-30.06339 24.21487,-36.77795 10.77835,25.04704 22.40207,50.09408 23.4319,75.14112 z"
       id="path5945"
       inkscape:connector-curvature="0"
       sodipodi:nodetypes="cccc" />
    <path
       style="fill:#dd55ff;stroke:#000000;stroke-width:0.26458332px;stroke-linecap:butt;stroke-linejoin:miter;stroke-opacity:0.02020204"
       d="m 397.75338,194.14052 c -19.0997,-18.26619 -39.79335,-31.75056 -64.9091,-31.96861 6.95371,21.29222 13.55597,42.70946 32.19878,59.84346 l 8.5106,9.6589 c 4.8897,-28.19307 15.0675,-30.2828 24.19972,-37.53375 z"
       id="path5962"
       inkscape:connector-curvature="0"
       sodipodi:nodetypes="ccccc" />
    <path
       style="fill:#7f2aff;stroke:#000000;stroke-width:0.26458332px;stroke-linecap:butt;stroke-linejoin:miter;stroke-opacity:0"
       d="m 396.18891,189.28452 c -4.18137,-25.51929 -18.38023,-45.77651 -30.02787,-67.37386 -12.38145,4.60445 -25.85504,4.26511 -31.86788,37.69829 19.61721,-0.25517 40.26268,9.7722 61.89575,29.67557 z"
       id="path5964"
       inkscape:connector-curvature="0"
       sodipodi:nodetypes="cccc" />
    <path
       style="fill:#dd55ff;stroke:#000000;stroke-width:0.26458332px;stroke-linecap:butt;stroke-linejoin:miter;stroke-opacity:0"
       d="m 369.92316,122.65883 c 13.34421,-5.28516 27.95691,-0.60517 41.58202,8.13574 -8.05829,13.72884 -5.01563,47.43938 -3.39413,78.59182 -14.55836,-48.88008 -26.07778,-64.57895 -38.18789,-86.72756 z"
       id="path5966"
       inkscape:connector-curvature="0"
       sodipodi:nodetypes="cccc" />
    <path
       style="fill:#ff2a7f;stroke:#000000;stroke-width:0.26458332px;stroke-linecap:butt;stroke-linejoin:miter;stroke-opacity:0"
       d="m 414.98703,133.45834 c 6.68229,4.40279 8.77639,8.89748 11.60945,13.37737 l 7.15035,17.24718 c -9.06946,12.99055 -16.54019,25.98109 -23.61103,38.97164 -4.21312,-31.84999 -1.03549,-67.68984 4.85123,-69.59619 z"
       id="path5968"
       inkscape:connector-curvature="0"
       sodipodi:nodetypes="ccccc" />
    <path
       style="fill:#9955ff;stroke:#000000;stroke-width:0.26458332px;stroke-linecap:butt;stroke-linejoin:miter;stroke-opacity:0"
       d="m 432.04623,169.76655 -16.12812,25.27443 c -3.51975,3.96181 -3.98864,13.73161 -5.62257,21.28352 12.08672,19.53982 13.08731,39.07964 17.80826,58.61946 l 3.83955,2.94752 -9.01481,-59.5099 z"
       id="path5970"
       inkscape:connector-curvature="0"
       sodipodi:nodetypes="ccccccc" />
    <path
       style="fill:#ff2a7f;stroke:#000000;stroke-width:0.26458332px;stroke-linecap:butt;stroke-linejoin:miter;stroke-opacity:0"
       d="m 444.25858,271.11661 c 18.58317,-12.73363 35.0961,-25.50872 47.64677,-38.36317 -17.93918,-3.02443 -19.48872,-22.18904 -24.21487,-36.77795 -8.59425,9.40456 -2.56313,43.88193 -23.4319,75.14112 z"
       id="path5945-0"
       inkscape:connector-curvature="0"
       sodipodi:nodetypes="cccc" />
    <path
       style="fill:#9955ff;stroke:#000000;stroke-width:0.26458332px;stroke-linecap:butt;stroke-linejoin:miter;stroke-opacity:0.02020204"
       d="m 471.05384,194.15257 c 36.73169,1.40796 46.78414,-18.48292 64.9091,-31.96861 -6.95371,21.29222 -13.55597,42.70946 -32.19878,59.84346 l -8.5106,9.6589 c -16.34319,-5.28609 -21.43891,-17.53999 -24.19972,-37.53375 z"
       id="path5962-8"
       inkscape:connector-curvature="0"
       sodipodi:nodetypes="ccccc" />
    <path
       style="fill:#dd55ff;stroke:#000000;stroke-width:0.26458332px;stroke-linecap:butt;stroke-linejoin:miter;stroke-opacity:0"
       d="m 472.61831,189.29657 c 16.25864,-15.85748 26.27186,-39.46321 30.02787,-67.37387 12.38145,4.60446 25.85504,4.26512 31.86788,37.6983 -19.73861,20.61152 -40.14653,33.1913 -61.89575,29.67557 z"
       id="path5964-7"
       inkscape:connector-curvature="0"
       sodipodi:nodetypes="cccc" />
    <path
       style="fill:#ff2a7f;stroke:#000000;stroke-width:0.26458332px;stroke-linecap:butt;stroke-linejoin:miter;stroke-opacity:0"
       d="m 497.82573,122.1417 c -13.34421,-5.28516 -26.89859,-0.076 -40.52369,8.66492 -11.11518,27.50761 -1.55794,52.43116 2.3358,78.06265 20.6654,-41.41592 37.73194,-50.33496 38.18789,-86.72757 z"
       id="path5966-0"
       inkscape:connector-curvature="0"
       sodipodi:nodetypes="cccc" />
    <path
       style="fill:#9955ff;stroke:#000000;stroke-width:0.26458332px;stroke-linecap:butt;stroke-linejoin:miter;stroke-opacity:0"
       d="m 453.82019,133.47039 c -6.68229,4.40279 -8.77639,8.89748 -11.60945,13.37737 l -7.15035,17.24718 20.58722,29.14426 c -11.56212,-30.87591 -5.81574,-44.44333 -1.82742,-59.76881 z"
       id="path5968-2"
       inkscape:connector-curvature="0"
       sodipodi:nodetypes="ccccc" />
    <path
       style="fill:#9955ff;stroke:#000000;stroke-width:0.26458332px;stroke-linecap:butt;stroke-linejoin:miter;stroke-opacity:0"
       d="m 435.70264,169.7786 16.12813,25.27443 c 3.51975,3.96181 3.98863,13.73161 5.62257,21.28352 4.33654,25.23248 -11.49785,39.28708 -17.80826,58.61946 l -3.83956,2.94752 9.7729,-58.76693 z"
       id="path5970-9"
       inkscape:connector-curvature="0"
       sodipodi:nodetypes="ccccccc" />
    <path
       style="fill:#ff2a7f;stroke:#000000;stroke-width:0.26458332px;stroke-linecap:butt;stroke-linejoin:miter;stroke-opacity:0.0151515"
       d="m 433.91666,268.27381 c -3.5681,-15.3307 -6.0066,-31.79101 -7.55951,-49.13691 1.09241,-15.03456 4.55378,-27.70018 7.55951,-40.82142 4.56928,20.07175 7.02175,33.34243 7.55952,39.30952 -1.68179,18.55904 -3.87337,36.0985 -7.55952,50.64881 z"
       id="path6032"
       inkscape:connector-curvature="0"
       sodipodi:nodetypes="ccccc" />
  </g>
</svg>
